<svg xmlns="http://www.w3.org/2000/svg" viewbox="0 0 44 44" width="44" height="44"><defs></defs><g>
<g>
	<g>
		<path d="M22.000000,3.070106C32.462398,3.070106 40.961012,11.554773 40.961012,22.000000 C40.961012,32.445227 32.462398,40.929894 22.000000,40.929894 C11.537602,40.929894 3.038988,32.445227 3.038988,22.000000 C3.038988,11.554773 11.537602,3.070106 22.000000,3.070106 Z" transform="matrix(1,0,0,1,0,0)" fill="#32de84"/>
		<g opacity="0.7">
			<path d="M-49.677002,-37.285468C-49.677002,-37.285468 -43.352576,-30.896928 -43.352576,-30.896928 C-43.352576,-30.896928 -37.162047,-37.341643 -37.162047,-37.341643 " transform="matrix(1.620535156,0,0,1.653385501,92.254374096,85.164234864)" fill="none" stroke="#000000" stroke-width="2" stroke-linecap="round" stroke-linejoin="round"/>
			<path d="M22.000000,13.532482C22.000000,13.532482 22.000000,32.965153 22.000000,32.965153 " transform="matrix(1,0,0,1,0,0)" fill="none" stroke="#000000" stroke-width="4" stroke-linecap="round"/>
		</g>
	</g>
</g></g></svg>